<mxfile host="app.diagrams.net" modified="2023-11-08T11:00:16.270Z" agent="Mozilla/5.0 (Windows NT 10.0; Win64; x64) AppleWebKit/537.36 (KHTML, like Gecko) Chrome/116.0.0.0 Safari/537.36 OPR/102.0.0.0" etag="W4cbDjb0nJlVpdZD6eyW" version="22.0.8" type="onedrive">
  <diagram id="C5RBs43oDa-KdzZeNtuy" name="Page-1">
    <mxGraphModel grid="1" page="1" gridSize="10" guides="1" tooltips="1" connect="1" arrows="1" fold="1" pageScale="1" pageWidth="827" pageHeight="1169" math="0" shadow="0">
      <root>
        <mxCell id="WIyWlLk6GJQsqaUBKTNV-0" />
        <mxCell id="WIyWlLk6GJQsqaUBKTNV-1" parent="WIyWlLk6GJQsqaUBKTNV-0" />
        <mxCell id="zkfFHV4jXpPFQw0GAbJ--17" value="Main Menu" style="swimlane;fontStyle=0;align=center;verticalAlign=top;childLayout=stackLayout;horizontal=1;startSize=26;horizontalStack=0;resizeParent=1;resizeLast=0;collapsible=1;marginBottom=0;rounded=0;shadow=0;strokeWidth=1;" vertex="1" parent="WIyWlLk6GJQsqaUBKTNV-1">
          <mxGeometry x="332" y="40" width="164" height="294" as="geometry">
            <mxRectangle x="332" y="40" width="160" height="26" as="alternateBounds" />
          </mxGeometry>
        </mxCell>
        <mxCell id="atT_8PSZAHXJFPYYS9Vs-11" style="edgeStyle=orthogonalEdgeStyle;rounded=0;orthogonalLoop=1;jettySize=auto;html=1;" edge="1" parent="zkfFHV4jXpPFQw0GAbJ--17" source="zkfFHV4jXpPFQw0GAbJ--18">
          <mxGeometry relative="1" as="geometry">
            <mxPoint x="388" y="80" as="targetPoint" />
            <Array as="points">
              <mxPoint x="389" y="39" />
              <mxPoint x="389" y="80" />
            </Array>
          </mxGeometry>
        </mxCell>
        <mxCell id="zkfFHV4jXpPFQw0GAbJ--18" value="startGameButton:   Button" style="text;align=left;verticalAlign=top;spacingLeft=4;spacingRight=4;overflow=hidden;rotatable=0;points=[[0,0.5],[1,0.5]];portConstraint=eastwest;" vertex="1" parent="zkfFHV4jXpPFQw0GAbJ--17">
          <mxGeometry y="26" width="164" height="26" as="geometry" />
        </mxCell>
        <mxCell id="zkfFHV4jXpPFQw0GAbJ--19" value="LoadGameButton:  Button" style="text;align=left;verticalAlign=top;spacingLeft=4;spacingRight=4;overflow=hidden;rotatable=0;points=[[0,0.5],[1,0.5]];portConstraint=eastwest;rounded=0;shadow=0;html=0;" vertex="1" parent="zkfFHV4jXpPFQw0GAbJ--17">
          <mxGeometry y="52" width="164" height="26" as="geometry" />
        </mxCell>
        <mxCell id="atT_8PSZAHXJFPYYS9Vs-115" style="edgeStyle=orthogonalEdgeStyle;rounded=0;orthogonalLoop=1;jettySize=auto;html=1;exitX=0;exitY=0.5;exitDx=0;exitDy=0;" edge="1" parent="zkfFHV4jXpPFQw0GAbJ--17" source="zkfFHV4jXpPFQw0GAbJ--20">
          <mxGeometry relative="1" as="geometry">
            <mxPoint x="-212" y="370" as="targetPoint" />
            <Array as="points">
              <mxPoint x="-92" y="91" />
              <mxPoint x="-92" y="270" />
              <mxPoint x="-212" y="270" />
            </Array>
          </mxGeometry>
        </mxCell>
        <mxCell id="zkfFHV4jXpPFQw0GAbJ--20" value="SettingsButton:       Button" style="text;align=left;verticalAlign=top;spacingLeft=4;spacingRight=4;overflow=hidden;rotatable=0;points=[[0,0.5],[1,0.5]];portConstraint=eastwest;rounded=0;shadow=0;html=0;" vertex="1" parent="zkfFHV4jXpPFQw0GAbJ--17">
          <mxGeometry y="78" width="164" height="26" as="geometry" />
        </mxCell>
        <mxCell id="zkfFHV4jXpPFQw0GAbJ--21" value="AboutButton:          Button" style="text;align=left;verticalAlign=top;spacingLeft=4;spacingRight=4;overflow=hidden;rotatable=0;points=[[0,0.5],[1,0.5]];portConstraint=eastwest;rounded=0;shadow=0;html=0;" vertex="1" parent="zkfFHV4jXpPFQw0GAbJ--17">
          <mxGeometry y="104" width="164" height="26" as="geometry" />
        </mxCell>
        <mxCell id="zkfFHV4jXpPFQw0GAbJ--22" value="QuitGameButton:   Button" style="text;align=left;verticalAlign=top;spacingLeft=4;spacingRight=4;overflow=hidden;rotatable=0;points=[[0,0.5],[1,0.5]];portConstraint=eastwest;rounded=0;shadow=0;html=0;" vertex="1" parent="zkfFHV4jXpPFQw0GAbJ--17">
          <mxGeometry y="130" width="164" height="26" as="geometry" />
        </mxCell>
        <mxCell id="zkfFHV4jXpPFQw0GAbJ--23" value="" style="line;html=1;strokeWidth=1;align=left;verticalAlign=middle;spacingTop=-1;spacingLeft=3;spacingRight=3;rotatable=0;labelPosition=right;points=[];portConstraint=eastwest;" vertex="1" parent="zkfFHV4jXpPFQw0GAbJ--17">
          <mxGeometry y="156" width="164" height="8" as="geometry" />
        </mxCell>
        <mxCell id="atT_8PSZAHXJFPYYS9Vs-5" value="startGame:             Void" style="text;align=left;verticalAlign=top;spacingLeft=4;spacingRight=4;overflow=hidden;rotatable=0;points=[[0,0.5],[1,0.5]];portConstraint=eastwest;" vertex="1" parent="zkfFHV4jXpPFQw0GAbJ--17">
          <mxGeometry y="164" width="164" height="26" as="geometry" />
        </mxCell>
        <mxCell id="atT_8PSZAHXJFPYYS9Vs-6" value="LoadGame:            Void" style="text;align=left;verticalAlign=top;spacingLeft=4;spacingRight=4;overflow=hidden;rotatable=0;points=[[0,0.5],[1,0.5]];portConstraint=eastwest;rounded=0;shadow=0;html=0;" vertex="1" parent="zkfFHV4jXpPFQw0GAbJ--17">
          <mxGeometry y="190" width="164" height="26" as="geometry" />
        </mxCell>
        <mxCell id="atT_8PSZAHXJFPYYS9Vs-7" value="Settings:                 Void" style="text;align=left;verticalAlign=top;spacingLeft=4;spacingRight=4;overflow=hidden;rotatable=0;points=[[0,0.5],[1,0.5]];portConstraint=eastwest;rounded=0;shadow=0;html=0;" vertex="1" parent="zkfFHV4jXpPFQw0GAbJ--17">
          <mxGeometry y="216" width="164" height="26" as="geometry" />
        </mxCell>
        <mxCell id="atT_8PSZAHXJFPYYS9Vs-8" value="About:                    Void" style="text;align=left;verticalAlign=top;spacingLeft=4;spacingRight=4;overflow=hidden;rotatable=0;points=[[0,0.5],[1,0.5]];portConstraint=eastwest;rounded=0;shadow=0;html=0;" vertex="1" parent="zkfFHV4jXpPFQw0GAbJ--17">
          <mxGeometry y="242" width="164" height="26" as="geometry" />
        </mxCell>
        <mxCell id="atT_8PSZAHXJFPYYS9Vs-9" value="QuitGame:             Void" style="text;align=left;verticalAlign=top;spacingLeft=4;spacingRight=4;overflow=hidden;rotatable=0;points=[[0,0.5],[1,0.5]];portConstraint=eastwest;rounded=0;shadow=0;html=0;" vertex="1" parent="zkfFHV4jXpPFQw0GAbJ--17">
          <mxGeometry y="268" width="164" height="26" as="geometry" />
        </mxCell>
        <mxCell id="atT_8PSZAHXJFPYYS9Vs-40" value="Difficulty" style="swimlane;fontStyle=0;align=center;verticalAlign=top;childLayout=stackLayout;horizontal=1;startSize=26;horizontalStack=0;resizeParent=1;resizeLast=0;collapsible=1;marginBottom=0;rounded=0;shadow=0;strokeWidth=1;" vertex="1" parent="WIyWlLk6GJQsqaUBKTNV-1">
          <mxGeometry x="660" y="120" width="140" height="208" as="geometry">
            <mxRectangle x="332" y="40" width="160" height="26" as="alternateBounds" />
          </mxGeometry>
        </mxCell>
        <mxCell id="atT_8PSZAHXJFPYYS9Vs-42" value="EasyButton:       Button" style="text;align=left;verticalAlign=top;spacingLeft=4;spacingRight=4;overflow=hidden;rotatable=0;points=[[0,0.5],[1,0.5]];portConstraint=eastwest;" vertex="1" parent="atT_8PSZAHXJFPYYS9Vs-40">
          <mxGeometry y="26" width="140" height="26" as="geometry" />
        </mxCell>
        <mxCell id="atT_8PSZAHXJFPYYS9Vs-43" value="MediumButton:  Button" style="text;align=left;verticalAlign=top;spacingLeft=4;spacingRight=4;overflow=hidden;rotatable=0;points=[[0,0.5],[1,0.5]];portConstraint=eastwest;rounded=0;shadow=0;html=0;" vertex="1" parent="atT_8PSZAHXJFPYYS9Vs-40">
          <mxGeometry y="52" width="140" height="26" as="geometry" />
        </mxCell>
        <mxCell id="atT_8PSZAHXJFPYYS9Vs-44" value="HardButton:       Button" style="text;align=left;verticalAlign=top;spacingLeft=4;spacingRight=4;overflow=hidden;rotatable=0;points=[[0,0.5],[1,0.5]];portConstraint=eastwest;rounded=0;shadow=0;html=0;" vertex="1" parent="atT_8PSZAHXJFPYYS9Vs-40">
          <mxGeometry y="78" width="140" height="26" as="geometry" />
        </mxCell>
        <mxCell id="atT_8PSZAHXJFPYYS9Vs-45" value="UltraButton:       Button" style="text;align=left;verticalAlign=top;spacingLeft=4;spacingRight=4;overflow=hidden;rotatable=0;points=[[0,0.5],[1,0.5]];portConstraint=eastwest;rounded=0;shadow=0;html=0;" vertex="1" parent="atT_8PSZAHXJFPYYS9Vs-40">
          <mxGeometry y="104" width="140" height="26" as="geometry" />
        </mxCell>
        <mxCell id="atT_8PSZAHXJFPYYS9Vs-46" value="UNButton:         Button" style="text;align=left;verticalAlign=top;spacingLeft=4;spacingRight=4;overflow=hidden;rotatable=0;points=[[0,0.5],[1,0.5]];portConstraint=eastwest;rounded=0;shadow=0;html=0;" vertex="1" parent="atT_8PSZAHXJFPYYS9Vs-40">
          <mxGeometry y="130" width="140" height="26" as="geometry" />
        </mxCell>
        <mxCell id="atT_8PSZAHXJFPYYS9Vs-47" value="" style="line;html=1;strokeWidth=1;align=left;verticalAlign=middle;spacingTop=-1;spacingLeft=3;spacingRight=3;rotatable=0;labelPosition=right;points=[];portConstraint=eastwest;" vertex="1" parent="atT_8PSZAHXJFPYYS9Vs-40">
          <mxGeometry y="156" width="140" height="8" as="geometry" />
        </mxCell>
        <mxCell id="atT_8PSZAHXJFPYYS9Vs-48" value="selectDifficulty&#xa;(difficulty:Difficulty): Void" style="text;align=left;verticalAlign=top;spacingLeft=4;spacingRight=4;overflow=hidden;rotatable=0;points=[[0,0.5],[1,0.5]];portConstraint=eastwest;" vertex="1" parent="atT_8PSZAHXJFPYYS9Vs-40">
          <mxGeometry y="164" width="140" height="38" as="geometry" />
        </mxCell>
        <mxCell id="atT_8PSZAHXJFPYYS9Vs-53" style="edgeStyle=orthogonalEdgeStyle;rounded=0;orthogonalLoop=1;jettySize=auto;html=1;exitX=1;exitY=0.5;exitDx=0;exitDy=0;" edge="1" parent="atT_8PSZAHXJFPYYS9Vs-40" source="atT_8PSZAHXJFPYYS9Vs-45" target="atT_8PSZAHXJFPYYS9Vs-45">
          <mxGeometry relative="1" as="geometry" />
        </mxCell>
        <mxCell id="atT_8PSZAHXJFPYYS9Vs-82" value="Difficulty" style="swimlane;fontStyle=0;align=center;verticalAlign=top;childLayout=stackLayout;horizontal=1;startSize=26;horizontalStack=0;resizeParent=1;resizeLast=0;collapsible=1;marginBottom=0;rounded=0;shadow=0;strokeWidth=1;" vertex="1" parent="WIyWlLk6GJQsqaUBKTNV-1">
          <mxGeometry x="648" y="480" width="164" height="268" as="geometry">
            <mxRectangle x="332" y="40" width="160" height="26" as="alternateBounds" />
          </mxGeometry>
        </mxCell>
        <mxCell id="atT_8PSZAHXJFPYYS9Vs-84" value="name:                     String" style="text;align=left;verticalAlign=top;spacingLeft=4;spacingRight=4;overflow=hidden;rotatable=0;points=[[0,0.5],[1,0.5]];portConstraint=eastwest;" vertex="1" parent="atT_8PSZAHXJFPYYS9Vs-82">
          <mxGeometry y="26" width="164" height="26" as="geometry" />
        </mxCell>
        <mxCell id="atT_8PSZAHXJFPYYS9Vs-85" value="enemyHealth:         int" style="text;align=left;verticalAlign=top;spacingLeft=4;spacingRight=4;overflow=hidden;rotatable=0;points=[[0,0.5],[1,0.5]];portConstraint=eastwest;rounded=0;shadow=0;html=0;" vertex="1" parent="atT_8PSZAHXJFPYYS9Vs-82">
          <mxGeometry y="52" width="164" height="26" as="geometry" />
        </mxCell>
        <mxCell id="atT_8PSZAHXJFPYYS9Vs-86" value="enemySpawns:       int " style="text;align=left;verticalAlign=top;spacingLeft=4;spacingRight=4;overflow=hidden;rotatable=0;points=[[0,0.5],[1,0.5]];portConstraint=eastwest;rounded=0;shadow=0;html=0;" vertex="1" parent="atT_8PSZAHXJFPYYS9Vs-82">
          <mxGeometry y="78" width="164" height="26" as="geometry" />
        </mxCell>
        <mxCell id="atT_8PSZAHXJFPYYS9Vs-87" value="ammoAvailability:    int" style="text;align=left;verticalAlign=top;spacingLeft=4;spacingRight=4;overflow=hidden;rotatable=0;points=[[0,0.5],[1,0.5]];portConstraint=eastwest;rounded=0;shadow=0;html=0;" vertex="1" parent="atT_8PSZAHXJFPYYS9Vs-82">
          <mxGeometry y="104" width="164" height="26" as="geometry" />
        </mxCell>
        <mxCell id="atT_8PSZAHXJFPYYS9Vs-88" value="weaponAvailability: int" style="text;align=left;verticalAlign=top;spacingLeft=4;spacingRight=4;overflow=hidden;rotatable=0;points=[[0,0.5],[1,0.5]];portConstraint=eastwest;rounded=0;shadow=0;html=0;" vertex="1" parent="atT_8PSZAHXJFPYYS9Vs-82">
          <mxGeometry y="130" width="164" height="26" as="geometry" />
        </mxCell>
        <mxCell id="atT_8PSZAHXJFPYYS9Vs-96" value="healthAvailability:    int" style="text;align=left;verticalAlign=top;spacingLeft=4;spacingRight=4;overflow=hidden;rotatable=0;points=[[0,0.5],[1,0.5]];portConstraint=eastwest;rounded=0;shadow=0;html=0;" vertex="1" parent="atT_8PSZAHXJFPYYS9Vs-82">
          <mxGeometry y="156" width="164" height="26" as="geometry" />
        </mxCell>
        <mxCell id="atT_8PSZAHXJFPYYS9Vs-95" value="levelSize:                 int" style="text;align=left;verticalAlign=top;spacingLeft=4;spacingRight=4;overflow=hidden;rotatable=0;points=[[0,0.5],[1,0.5]];portConstraint=eastwest;rounded=0;shadow=0;html=0;" vertex="1" parent="atT_8PSZAHXJFPYYS9Vs-82">
          <mxGeometry y="182" width="164" height="26" as="geometry" />
        </mxCell>
        <mxCell id="atT_8PSZAHXJFPYYS9Vs-97" value="permaDeath:          boolean" style="text;align=left;verticalAlign=top;spacingLeft=4;spacingRight=4;overflow=hidden;rotatable=0;points=[[0,0.5],[1,0.5]];portConstraint=eastwest;rounded=0;shadow=0;html=0;" vertex="1" parent="atT_8PSZAHXJFPYYS9Vs-82">
          <mxGeometry y="208" width="164" height="26" as="geometry" />
        </mxCell>
        <mxCell id="atT_8PSZAHXJFPYYS9Vs-89" value="" style="line;html=1;strokeWidth=1;align=left;verticalAlign=middle;spacingTop=-1;spacingLeft=3;spacingRight=3;rotatable=0;labelPosition=right;points=[];portConstraint=eastwest;" vertex="1" parent="atT_8PSZAHXJFPYYS9Vs-82">
          <mxGeometry y="234" width="164" height="8" as="geometry" />
        </mxCell>
        <mxCell id="atT_8PSZAHXJFPYYS9Vs-90" value="Getters and Setters" style="text;align=left;verticalAlign=top;spacingLeft=4;spacingRight=4;overflow=hidden;rotatable=0;points=[[0,0.5],[1,0.5]];portConstraint=eastwest;" vertex="1" parent="atT_8PSZAHXJFPYYS9Vs-82">
          <mxGeometry y="242" width="164" height="26" as="geometry" />
        </mxCell>
        <mxCell id="atT_8PSZAHXJFPYYS9Vs-99" value="Load Game" style="swimlane;fontStyle=0;align=center;verticalAlign=top;childLayout=stackLayout;horizontal=1;startSize=26;horizontalStack=0;resizeParent=1;resizeLast=0;collapsible=1;marginBottom=0;rounded=0;shadow=0;strokeWidth=1;" vertex="1" parent="WIyWlLk6GJQsqaUBKTNV-1">
          <mxGeometry x="40" y="130" width="164" height="112" as="geometry">
            <mxRectangle x="332" y="40" width="160" height="26" as="alternateBounds" />
          </mxGeometry>
        </mxCell>
        <mxCell id="atT_8PSZAHXJFPYYS9Vs-101" value="savedGames:             List" style="text;align=left;verticalAlign=top;spacingLeft=4;spacingRight=4;overflow=hidden;rotatable=0;points=[[0,0.5],[1,0.5]];portConstraint=eastwest;" vertex="1" parent="atT_8PSZAHXJFPYYS9Vs-99">
          <mxGeometry y="26" width="164" height="24" as="geometry" />
        </mxCell>
        <mxCell id="atT_8PSZAHXJFPYYS9Vs-107" value="" style="line;html=1;strokeWidth=1;align=left;verticalAlign=middle;spacingTop=-1;spacingLeft=3;spacingRight=3;rotatable=0;labelPosition=right;points=[];portConstraint=eastwest;" vertex="1" parent="atT_8PSZAHXJFPYYS9Vs-99">
          <mxGeometry y="50" width="164" height="8" as="geometry" />
        </mxCell>
        <mxCell id="atT_8PSZAHXJFPYYS9Vs-108" value="loadSavedGame:       Void&#xa;" style="text;align=left;verticalAlign=top;spacingLeft=4;spacingRight=4;overflow=hidden;rotatable=0;points=[[0,0.5],[1,0.5]];portConstraint=eastwest;" vertex="1" parent="atT_8PSZAHXJFPYYS9Vs-99">
          <mxGeometry y="58" width="164" height="26" as="geometry" />
        </mxCell>
        <mxCell id="atT_8PSZAHXJFPYYS9Vs-114" value="getSavedGame:       Void&#xa;" style="text;align=left;verticalAlign=top;spacingLeft=4;spacingRight=4;overflow=hidden;rotatable=0;points=[[0,0.5],[1,0.5]];portConstraint=eastwest;" vertex="1" parent="atT_8PSZAHXJFPYYS9Vs-99">
          <mxGeometry y="84" width="164" height="26" as="geometry" />
        </mxCell>
        <mxCell id="atT_8PSZAHXJFPYYS9Vs-98" style="edgeStyle=orthogonalEdgeStyle;rounded=0;orthogonalLoop=1;jettySize=auto;html=1;entryX=0.5;entryY=0;entryDx=0;entryDy=0;" edge="1" parent="WIyWlLk6GJQsqaUBKTNV-1" source="zkfFHV4jXpPFQw0GAbJ--19" target="atT_8PSZAHXJFPYYS9Vs-99">
          <mxGeometry relative="1" as="geometry">
            <mxPoint x="90.00000000000023" y="130" as="targetPoint" />
            <Array as="points">
              <mxPoint x="122" y="105" />
            </Array>
          </mxGeometry>
        </mxCell>
        <mxCell id="atT_8PSZAHXJFPYYS9Vs-126" value="Settings" style="swimlane;fontStyle=0;align=center;verticalAlign=top;childLayout=stackLayout;horizontal=1;startSize=26;horizontalStack=0;resizeParent=1;resizeLast=0;collapsible=1;marginBottom=0;rounded=0;shadow=0;strokeWidth=1;" vertex="1" parent="WIyWlLk6GJQsqaUBKTNV-1">
          <mxGeometry x="40" y="410" width="160" height="134" as="geometry">
            <mxRectangle x="332" y="40" width="160" height="26" as="alternateBounds" />
          </mxGeometry>
        </mxCell>
        <mxCell id="atT_8PSZAHXJFPYYS9Vs-127" value="graphicsSettings:        Class" style="text;align=left;verticalAlign=top;spacingLeft=4;spacingRight=4;overflow=hidden;rotatable=0;points=[[0,0.5],[1,0.5]];portConstraint=eastwest;" vertex="1" parent="atT_8PSZAHXJFPYYS9Vs-126">
          <mxGeometry y="26" width="160" height="24" as="geometry" />
        </mxCell>
        <mxCell id="atT_8PSZAHXJFPYYS9Vs-136" value="inputSettings:             Class" style="text;align=left;verticalAlign=top;spacingLeft=4;spacingRight=4;overflow=hidden;rotatable=0;points=[[0,0.5],[1,0.5]];portConstraint=eastwest;" vertex="1" parent="atT_8PSZAHXJFPYYS9Vs-126">
          <mxGeometry y="50" width="160" height="24" as="geometry" />
        </mxCell>
        <mxCell id="atT_8PSZAHXJFPYYS9Vs-128" value="" style="line;html=1;strokeWidth=1;align=left;verticalAlign=middle;spacingTop=-1;spacingLeft=3;spacingRight=3;rotatable=0;labelPosition=right;points=[];portConstraint=eastwest;" vertex="1" parent="atT_8PSZAHXJFPYYS9Vs-126">
          <mxGeometry y="74" width="160" height="8" as="geometry" />
        </mxCell>
        <mxCell id="atT_8PSZAHXJFPYYS9Vs-137" style="edgeStyle=orthogonalEdgeStyle;rounded=0;orthogonalLoop=1;jettySize=auto;html=1;" edge="1" parent="atT_8PSZAHXJFPYYS9Vs-126" source="atT_8PSZAHXJFPYYS9Vs-129">
          <mxGeometry relative="1" as="geometry">
            <mxPoint x="40.00000000000023" y="250" as="targetPoint" />
          </mxGeometry>
        </mxCell>
        <mxCell id="atT_8PSZAHXJFPYYS9Vs-129" value="GraphicsSettings:         Void" style="text;align=left;verticalAlign=top;spacingLeft=4;spacingRight=4;overflow=hidden;rotatable=0;points=[[0,0.5],[1,0.5]];portConstraint=eastwest;" vertex="1" parent="atT_8PSZAHXJFPYYS9Vs-126">
          <mxGeometry y="82" width="160" height="26" as="geometry" />
        </mxCell>
        <mxCell id="atT_8PSZAHXJFPYYS9Vs-130" value="inputSettings:             Void&#xa;" style="text;align=left;verticalAlign=top;spacingLeft=4;spacingRight=4;overflow=hidden;rotatable=0;points=[[0,0.5],[1,0.5]];portConstraint=eastwest;" vertex="1" parent="atT_8PSZAHXJFPYYS9Vs-126">
          <mxGeometry y="108" width="160" height="26" as="geometry" />
        </mxCell>
        <mxCell id="atT_8PSZAHXJFPYYS9Vs-138" value="Graphics Settings" style="swimlane;fontStyle=0;align=center;verticalAlign=top;childLayout=stackLayout;horizontal=1;startSize=26;horizontalStack=0;resizeParent=1;resizeLast=0;collapsible=1;marginBottom=0;rounded=0;shadow=0;strokeWidth=1;" vertex="1" parent="WIyWlLk6GJQsqaUBKTNV-1">
          <mxGeometry y="660" width="150" height="134" as="geometry">
            <mxRectangle x="332" y="40" width="160" height="26" as="alternateBounds" />
          </mxGeometry>
        </mxCell>
        <mxCell id="atT_8PSZAHXJFPYYS9Vs-139" value="resolution:                   int" style="text;align=left;verticalAlign=top;spacingLeft=4;spacingRight=4;overflow=hidden;rotatable=0;points=[[0,0.5],[1,0.5]];portConstraint=eastwest;" vertex="1" parent="atT_8PSZAHXJFPYYS9Vs-138">
          <mxGeometry y="26" width="150" height="24" as="geometry" />
        </mxCell>
        <mxCell id="atT_8PSZAHXJFPYYS9Vs-140" value="displayMode:              int" style="text;align=left;verticalAlign=top;spacingLeft=4;spacingRight=4;overflow=hidden;rotatable=0;points=[[0,0.5],[1,0.5]];portConstraint=eastwest;" vertex="1" parent="atT_8PSZAHXJFPYYS9Vs-138">
          <mxGeometry y="50" width="150" height="24" as="geometry" />
        </mxCell>
        <mxCell id="atT_8PSZAHXJFPYYS9Vs-141" value="" style="line;html=1;strokeWidth=1;align=left;verticalAlign=middle;spacingTop=-1;spacingLeft=3;spacingRight=3;rotatable=0;labelPosition=right;points=[];portConstraint=eastwest;" vertex="1" parent="atT_8PSZAHXJFPYYS9Vs-138">
          <mxGeometry y="74" width="150" height="8" as="geometry" />
        </mxCell>
        <mxCell id="atT_8PSZAHXJFPYYS9Vs-143" value="setResolution:          Void" style="text;align=left;verticalAlign=top;spacingLeft=4;spacingRight=4;overflow=hidden;rotatable=0;points=[[0,0.5],[1,0.5]];portConstraint=eastwest;" vertex="1" parent="atT_8PSZAHXJFPYYS9Vs-138">
          <mxGeometry y="82" width="150" height="26" as="geometry" />
        </mxCell>
        <mxCell id="atT_8PSZAHXJFPYYS9Vs-144" value="setDisplayMode:      Void" style="text;align=left;verticalAlign=top;spacingLeft=4;spacingRight=4;overflow=hidden;rotatable=0;points=[[0,0.5],[1,0.5]];portConstraint=eastwest;" vertex="1" parent="atT_8PSZAHXJFPYYS9Vs-138">
          <mxGeometry y="108" width="150" height="26" as="geometry" />
        </mxCell>
        <mxCell id="atT_8PSZAHXJFPYYS9Vs-146" value="Input Settings" style="swimlane;fontStyle=0;align=center;verticalAlign=top;childLayout=stackLayout;horizontal=1;startSize=26;horizontalStack=0;resizeParent=1;resizeLast=0;collapsible=1;marginBottom=0;rounded=0;shadow=0;strokeWidth=1;" vertex="1" parent="WIyWlLk6GJQsqaUBKTNV-1">
          <mxGeometry x="170" y="660" width="150" height="134" as="geometry">
            <mxRectangle x="332" y="40" width="160" height="26" as="alternateBounds" />
          </mxGeometry>
        </mxCell>
        <mxCell id="atT_8PSZAHXJFPYYS9Vs-147" value="keyBinds:                JSON" style="text;align=left;verticalAlign=top;spacingLeft=4;spacingRight=4;overflow=hidden;rotatable=0;points=[[0,0.5],[1,0.5]];portConstraint=eastwest;" vertex="1" parent="atT_8PSZAHXJFPYYS9Vs-146">
          <mxGeometry y="26" width="150" height="24" as="geometry" />
        </mxCell>
        <mxCell id="atT_8PSZAHXJFPYYS9Vs-148" value="mouseBinds:           JSON " style="text;align=left;verticalAlign=top;spacingLeft=4;spacingRight=4;overflow=hidden;rotatable=0;points=[[0,0.5],[1,0.5]];portConstraint=eastwest;" vertex="1" parent="atT_8PSZAHXJFPYYS9Vs-146">
          <mxGeometry y="50" width="150" height="24" as="geometry" />
        </mxCell>
        <mxCell id="atT_8PSZAHXJFPYYS9Vs-149" value="" style="line;html=1;strokeWidth=1;align=left;verticalAlign=middle;spacingTop=-1;spacingLeft=3;spacingRight=3;rotatable=0;labelPosition=right;points=[];portConstraint=eastwest;" vertex="1" parent="atT_8PSZAHXJFPYYS9Vs-146">
          <mxGeometry y="74" width="150" height="8" as="geometry" />
        </mxCell>
        <mxCell id="atT_8PSZAHXJFPYYS9Vs-150" value="setKeyBinds:           Void" style="text;align=left;verticalAlign=top;spacingLeft=4;spacingRight=4;overflow=hidden;rotatable=0;points=[[0,0.5],[1,0.5]];portConstraint=eastwest;" vertex="1" parent="atT_8PSZAHXJFPYYS9Vs-146">
          <mxGeometry y="82" width="150" height="26" as="geometry" />
        </mxCell>
        <mxCell id="atT_8PSZAHXJFPYYS9Vs-151" value="setMouseBinds:      Void" style="text;align=left;verticalAlign=top;spacingLeft=4;spacingRight=4;overflow=hidden;rotatable=0;points=[[0,0.5],[1,0.5]];portConstraint=eastwest;" vertex="1" parent="atT_8PSZAHXJFPYYS9Vs-146">
          <mxGeometry y="108" width="150" height="26" as="geometry" />
        </mxCell>
        <mxCell id="atT_8PSZAHXJFPYYS9Vs-145" style="edgeStyle=orthogonalEdgeStyle;rounded=0;orthogonalLoop=1;jettySize=auto;html=1;entryX=0.461;entryY=-0.024;entryDx=0;entryDy=0;entryPerimeter=0;" edge="1" parent="WIyWlLk6GJQsqaUBKTNV-1" source="atT_8PSZAHXJFPYYS9Vs-130" target="atT_8PSZAHXJFPYYS9Vs-146">
          <mxGeometry relative="1" as="geometry">
            <mxPoint x="240.00000000000023" y="600" as="targetPoint" />
          </mxGeometry>
        </mxCell>
        <mxCell id="atT_8PSZAHXJFPYYS9Vs-153" value="About" style="swimlane;fontStyle=0;align=center;verticalAlign=top;childLayout=stackLayout;horizontal=1;startSize=26;horizontalStack=0;resizeParent=1;resizeLast=0;collapsible=1;marginBottom=0;rounded=0;shadow=0;strokeWidth=1;" vertex="1" parent="WIyWlLk6GJQsqaUBKTNV-1">
          <mxGeometry x="280" y="396" width="150" height="84" as="geometry">
            <mxRectangle x="332" y="40" width="160" height="26" as="alternateBounds" />
          </mxGeometry>
        </mxCell>
        <mxCell id="atT_8PSZAHXJFPYYS9Vs-154" value="description:              Label" style="text;align=left;verticalAlign=top;spacingLeft=4;spacingRight=4;overflow=hidden;rotatable=0;points=[[0,0.5],[1,0.5]];portConstraint=eastwest;" vertex="1" parent="atT_8PSZAHXJFPYYS9Vs-153">
          <mxGeometry y="26" width="150" height="24" as="geometry" />
        </mxCell>
        <mxCell id="atT_8PSZAHXJFPYYS9Vs-155" value="" style="line;html=1;strokeWidth=1;align=left;verticalAlign=middle;spacingTop=-1;spacingLeft=3;spacingRight=3;rotatable=0;labelPosition=right;points=[];portConstraint=eastwest;" vertex="1" parent="atT_8PSZAHXJFPYYS9Vs-153">
          <mxGeometry y="50" width="150" height="8" as="geometry" />
        </mxCell>
        <mxCell id="atT_8PSZAHXJFPYYS9Vs-156" value="displayAbout:            Void" style="text;align=left;verticalAlign=top;spacingLeft=4;spacingRight=4;overflow=hidden;rotatable=0;points=[[0,0.5],[1,0.5]];portConstraint=eastwest;" vertex="1" parent="atT_8PSZAHXJFPYYS9Vs-153">
          <mxGeometry y="58" width="150" height="26" as="geometry" />
        </mxCell>
        <mxCell id="atT_8PSZAHXJFPYYS9Vs-152" style="edgeStyle=orthogonalEdgeStyle;rounded=0;orthogonalLoop=1;jettySize=auto;html=1;entryX=0.5;entryY=0;entryDx=0;entryDy=0;" edge="1" parent="WIyWlLk6GJQsqaUBKTNV-1" source="zkfFHV4jXpPFQw0GAbJ--21" target="atT_8PSZAHXJFPYYS9Vs-153">
          <mxGeometry relative="1" as="geometry">
            <mxPoint x="400" y="390" as="targetPoint" />
            <Array as="points">
              <mxPoint x="280" y="157" />
              <mxPoint x="280" y="370" />
              <mxPoint x="362" y="370" />
            </Array>
          </mxGeometry>
        </mxCell>
        <mxCell id="atT_8PSZAHXJFPYYS9Vs-158" value="Quit Game" style="swimlane;fontStyle=0;align=center;verticalAlign=top;childLayout=stackLayout;horizontal=1;startSize=26;horizontalStack=0;resizeParent=1;resizeLast=0;collapsible=1;marginBottom=0;rounded=0;shadow=0;strokeWidth=1;" vertex="1" parent="WIyWlLk6GJQsqaUBKTNV-1">
          <mxGeometry x="470" y="396" width="130" height="132" as="geometry">
            <mxRectangle x="332" y="40" width="160" height="26" as="alternateBounds" />
          </mxGeometry>
        </mxCell>
        <mxCell id="atT_8PSZAHXJFPYYS9Vs-159" value="Quit:                Button" style="text;align=left;verticalAlign=top;spacingLeft=4;spacingRight=4;overflow=hidden;rotatable=0;points=[[0,0.5],[1,0.5]];portConstraint=eastwest;" vertex="1" parent="atT_8PSZAHXJFPYYS9Vs-158">
          <mxGeometry y="26" width="130" height="24" as="geometry" />
        </mxCell>
        <mxCell id="atT_8PSZAHXJFPYYS9Vs-163" value="Stay:                Button" style="text;align=left;verticalAlign=top;spacingLeft=4;spacingRight=4;overflow=hidden;rotatable=0;points=[[0,0.5],[1,0.5]];portConstraint=eastwest;" vertex="1" parent="atT_8PSZAHXJFPYYS9Vs-158">
          <mxGeometry y="50" width="130" height="24" as="geometry" />
        </mxCell>
        <mxCell id="atT_8PSZAHXJFPYYS9Vs-160" value="" style="line;html=1;strokeWidth=1;align=left;verticalAlign=middle;spacingTop=-1;spacingLeft=3;spacingRight=3;rotatable=0;labelPosition=right;points=[];portConstraint=eastwest;" vertex="1" parent="atT_8PSZAHXJFPYYS9Vs-158">
          <mxGeometry y="74" width="130" height="8" as="geometry" />
        </mxCell>
        <mxCell id="atT_8PSZAHXJFPYYS9Vs-161" value="confirmQuit:       Void" style="text;align=left;verticalAlign=top;spacingLeft=4;spacingRight=4;overflow=hidden;rotatable=0;points=[[0,0.5],[1,0.5]];portConstraint=eastwest;" vertex="1" parent="atT_8PSZAHXJFPYYS9Vs-158">
          <mxGeometry y="82" width="130" height="26" as="geometry" />
        </mxCell>
        <mxCell id="atT_8PSZAHXJFPYYS9Vs-164" value="confirmStay:      Void" style="text;align=left;verticalAlign=top;spacingLeft=4;spacingRight=4;overflow=hidden;rotatable=0;points=[[0,0.5],[1,0.5]];portConstraint=eastwest;" vertex="1" parent="atT_8PSZAHXJFPYYS9Vs-158">
          <mxGeometry y="108" width="130" height="24" as="geometry" />
        </mxCell>
        <mxCell id="atT_8PSZAHXJFPYYS9Vs-162" style="edgeStyle=orthogonalEdgeStyle;rounded=0;orthogonalLoop=1;jettySize=auto;html=1;exitX=1;exitY=0.5;exitDx=0;exitDy=0;entryX=0.5;entryY=0;entryDx=0;entryDy=0;" edge="1" parent="WIyWlLk6GJQsqaUBKTNV-1" source="zkfFHV4jXpPFQw0GAbJ--22" target="atT_8PSZAHXJFPYYS9Vs-158">
          <mxGeometry relative="1" as="geometry" />
        </mxCell>
        <mxCell id="atT_8PSZAHXJFPYYS9Vs-167" style="edgeStyle=orthogonalEdgeStyle;rounded=0;orthogonalLoop=1;jettySize=auto;html=1;exitX=0.5;exitY=1;exitDx=0;exitDy=0;entryX=0.5;entryY=0;entryDx=0;entryDy=0;" edge="1" parent="WIyWlLk6GJQsqaUBKTNV-1" source="atT_8PSZAHXJFPYYS9Vs-40" target="atT_8PSZAHXJFPYYS9Vs-82">
          <mxGeometry relative="1" as="geometry" />
        </mxCell>
      </root>
    </mxGraphModel>
  </diagram>
</mxfile>
